<?xml version="1.0" encoding="utf-8"?>
<!-- Generator: Adobe Illustrator 24.1.0, SVG Export Plug-In . SVG Version: 6.00 Build 0)  -->
<svg version="1.0" id="Capa_1" xmlns="http://www.w3.org/2000/svg" xmlns:xlink="http://www.w3.org/1999/xlink" x="0px" y="0px"
	 viewBox="0 0 1080 1080" style="enable-background:new 0 0 1080 1080;" xml:space="preserve">
<style type="text/css">
	.st0{fill:none;}
	.st1{fill:#FF0000;}
</style>
<g id="Icon_material-favorite-2" transform="translate(-3 -4.5)">
	<path class="st0" d="M543,986.95l-69.91-63.67C224.74,698.09,60.77,549.58,60.77,367.3c-1.44-145.05,114.98-263.8,260.02-265.24
		c1.74-0.02,3.48-0.02,5.22,0c83.5,0.64,162.63,37.4,216.99,100.79c54.36-63.39,133.49-100.14,216.99-100.79
		c145.05-1.44,263.8,114.98,265.24,260.02c0.02,1.74,0.02,3.48,0,5.22c0,182.28-163.96,330.94-412.32,556.58L543,986.95z"/>
	<path class="st1" d="M543.23,783.83c104.34-94.95,193.88-177.92,252.97-250.34c69.67-85.39,78.6-133.68,78.6-166.2
		c0-65.45-49.35-114.8-114.8-114.8c-38.06,0-77.32,18.35-102.47,47.89L543,434.87L428.47,300.38
		c-25.15-29.54-64.42-47.89-102.47-47.89c-65.45,0-114.8,49.35-114.8,114.8c0,32.58,8.97,80.95,78.88,166.49
		C349.25,606.16,438.83,689.02,543.23,783.83 M543,986.95l-69.92-63.65C224.73,698.1,60.77,549.57,60.77,367.29
		c0-148.53,116.7-265.22,265.22-265.22c83.91,0,164.44,39.06,217,100.79c52.56-61.72,133.09-100.79,217-100.79
		c148.53,0,265.22,116.7,265.22,265.22c0,182.28-163.96,330.81-412.3,556.49L543,986.95z"/>
</g>
<g>
</g>
<g>
</g>
<g>
</g>
<g>
</g>
<g>
</g>
<g>
</g>
<g>
</g>
<g>
</g>
<g>
</g>
<g>
</g>
<g>
</g>
<g>
</g>
<g>
</g>
<g>
</g>
<g>
</g>
</svg>
