<svg xmlns="http://www.w3.org/2000/svg" width="73.118" height="73.096" viewBox="0 0 73.118 73.096"><defs><style>.a{fill:#0052ff;}.b{fill:#131313;}.c{fill:#f5f5f5;}</style></defs><path class="a" d="M-635.387,709.292a.331.331,0,0,0-.231.128,26.388,26.388,0,0,1-1.832,1.977,42.557,42.557,0,0,1-4.522,3.766,35.791,35.791,0,0,1-4.572,2.76,34.961,34.961,0,0,1-6.539,2.552c-1.1.3-2.2.576-3.324.777-.984.177-1.977.306-2.973.419a40.75,40.75,0,0,1-4.562.167,30.321,30.321,0,0,1-3.544-.259q-1.244-.146-2.473-.377a35.889,35.889,0,0,1-4.148-1.048,35.693,35.693,0,0,1-6.26-2.644,38.035,38.035,0,0,1-4.9-3.178,38.917,38.917,0,0,1-4.752-4.343,32.5,32.5,0,0,1-2.6-3.179,36.414,36.414,0,0,1-3.59-6.094,36.126,36.126,0,0,1-2.558-7.593c-.257-1.188-.446-2.386-.6-3.588-.07-.538-.086-1.093-.137-1.635a40.744,40.744,0,0,1-.06-4.205,26.7,26.7,0,0,1,.233-2.813q.155-1.336.41-2.652c.182-.938.408-1.87.665-2.791a35.828,35.828,0,0,1,2.517-6.506,35.663,35.663,0,0,1,3.72-5.9c.683-.877,1.415-1.711,2.151-2.545a30.162,30.162,0,0,1,2.644-2.589,36.435,36.435,0,0,1,5.807-4.184,37.158,37.158,0,0,1,6.08-2.834,33.906,33.906,0,0,1,5.9-1.558c1.075-.183,2.157-.334,3.251-.41a31.607,31.607,0,0,1,3.92-.146c.742.041,1.486.05,2.229.138.632.075,1.269.118,1.9.2.933.123,1.86.277,2.78.474a37.678,37.678,0,0,1,4.728,1.362c.919.327,1.818.7,2.707,1.1a35.877,35.877,0,0,1,5.859,3.357,32.735,32.735,0,0,1,3.353,2.674c.416.38.83.763,1.234,1.156a35.979,35.979,0,0,1,5.111,6.245c.606.933,1.155,1.9,1.68,2.881a35.812,35.812,0,0,1,2.628,6.413,33.96,33.96,0,0,1,1.038,4.477c.127.779.22,1.562.332,2.342a8.8,8.8,0,0,1,.092,1.134,27.171,27.171,0,0,1,.09,3.287c-.086.789-.049,1.578-.136,2.367-.1.875-.183,1.751-.308,2.622-.14.976-.353,1.94-.58,2.9a35.955,35.955,0,0,1-3.2,8.477,35.011,35.011,0,0,1-2.179,3.593,1.187,1.187,0,0,0-.283.515A18.276,18.276,0,0,1-635.387,709.292Z" transform="translate(699.591 -648.742)"/><path class="b" d="M-638.233,672.665c7.284.115,15.387,3.5,21.963,10.3a33.343,33.343,0,0,1,9.479,23.913,33.314,33.314,0,0,1-10.6,23.859A33.3,33.3,0,0,1-640.747,740a33.214,33.214,0,0,1-23.984-10.4,33.028,33.028,0,0,1-9.364-25.041,32.135,32.135,0,0,1,4.118-14.469,33.31,33.31,0,0,1,11.466-12.194C-652.993,674.4-646.959,672.638-638.233,672.665Z" transform="translate(677.235 -669.743)"/><path class="a" d="M-596.921,718.189a31.2,31.2,0,0,1-9.535,22.315,31.007,31.007,0,0,1-23.548,9.259,30.913,30.913,0,0,1-21.749-9.5,31.127,31.127,0,0,1-9.281-23.409,30.891,30.891,0,0,1,9.813-22.177,31.016,31.016,0,0,1,22.982-8.979,31,31,0,0,1,22.4,9.934A31.792,31.792,0,0,1-596.921,718.189Z" transform="translate(665.752 -681.173)"/><path class="b" d="M-310.826,838.271a9.819,9.819,0,0,1-6.819,2,9.959,9.959,0,0,1-8.917-7.548,10.012,10.012,0,0,1,7.862-12.27,10.4,10.4,0,0,1,2.231-.155.54.54,0,0,1,.418.14c.211.026.3.2.4.345a25.146,25.146,0,0,1,4.611,10.511,25.6,25.6,0,0,1,.431,5.323A4.262,4.262,0,0,1-310.826,838.271Z" transform="translate(372.374 -799.344)"/><path class="b" d="M-601.476,820.38a.652.652,0,0,1,.433-.107,10,10,0,0,1,10.106,7.875,9.983,9.983,0,0,1-7.695,11.889,9.839,9.839,0,0,1-7.77-1.537c-.26-.172-.285-.4-.364-.637-.157-.12-.134-.3-.139-.461a26.432,26.432,0,0,1,.888-8.325,25.312,25.312,0,0,1,4.163-8.384A.7.7,0,0,1-601.476,820.38Z" transform="translate(618.243 -799.322)"/><path class="b" d="M-380.993,1016.317a8.252,8.252,0,0,1-2.136-1.912,9.791,9.791,0,0,1-2.239-7.327,9.984,9.984,0,0,1,8.528-8.92,9.976,9.976,0,0,1,10.8,6.405,1.134,1.134,0,0,1,.145.658.6.6,0,0,1-.153.419,25.907,25.907,0,0,1-4.494,5.215,25.187,25.187,0,0,1-9.121,5.174A3.209,3.209,0,0,1-380.993,1016.317Z" transform="translate(423.779 -955.399)"/><path class="b" d="M-463.112,743.419c.222.093.278.291.341.5a10.023,10.023,0,0,1-6.731,12.4,10.007,10.007,0,0,1-12.7-7.768,9.972,9.972,0,0,1,.242-4.666.689.689,0,0,1,.37-.475.8.8,0,0,1,.489-.313,26.344,26.344,0,0,1,7.09-1.486,25.085,25.085,0,0,1,10.372,1.494C-463.448,743.172-463.223,743.2-463.112,743.419Z" transform="translate(508.901 -730.215)"/><path class="b" d="M-576.429,1005.033a.6.6,0,0,1,.061-.441,9.744,9.744,0,0,1,7.926-6.41,9.94,9.94,0,0,1,11.174,7.5,10.047,10.047,0,0,1-3.719,10.375.668.668,0,0,1-.54.174,3.976,3.976,0,0,1-1.623-.4,25.093,25.093,0,0,1-8.248-4.721,25.222,25.222,0,0,1-4.834-5.577A.837.837,0,0,1-576.429,1005.033Z" transform="translate(591.488 -955.406)"/><g transform="translate(7.508 6.503)"><path class="c" d="M-229.454,828.077a10,10,0,0,0-2.236-4.24,10.089,10.089,0,0,0-3.572-2.562,11.365,11.365,0,0,0-2.764-.738c-.12-.019-.247-.025-.325.105.06.088.117.177.18.262a24.938,24.938,0,0,1,5.133,15.425c0,.716-.057,1.433-.087,2.149a9.654,9.654,0,0,0,2.009-2.041,9.943,9.943,0,0,0,1.926-5.1A9.51,9.51,0,0,0-229.454,828.077Z" transform="translate(287.164 -806.054)"/><path class="c" d="M-566.727,1065.976a25.108,25.108,0,0,1-10.954-7.167,27.928,27.928,0,0,1-2.729-3.653.419.419,0,0,0-.192.3,11.17,11.17,0,0,0-.374,2.422,9.139,9.139,0,0,0,.272,2.573,9.764,9.764,0,0,0,2.109,4.2,10.054,10.054,0,0,0,3.762,2.756,9.926,9.926,0,0,0,3.675.775,10.239,10.239,0,0,0,4-.749,11.409,11.409,0,0,0,1.58-.82c.12-.07.14-.146.069-.257C-565.914,1066.229-566.323,1066.109-566.727,1065.976Z" transform="translate(587.959 -1012.032)"/><path class="c" d="M-458.67,708.085a9.738,9.738,0,0,0-3.166-4.059A9.984,9.984,0,0,0-467.73,702a9.282,9.282,0,0,0-2.037.191,9.953,9.953,0,0,0-5,2.579,10.122,10.122,0,0,0-2.332,3.405,2.265,2.265,0,0,0-.137.385c-.025.109.088.1.152.125.072-.023.146-.042.216-.068a25.7,25.7,0,0,1,5.608-1.428,25.252,25.252,0,0,1,9.259.456,33.37,33.37,0,0,1,3.4,1.053C-458.362,708.467-458.594,708.266-458.67,708.085Z" transform="translate(496.883 -701.996)"/><path class="c" d="M-334.1,1056.738c-.39.563-.762,1.138-1.173,1.685a25.052,25.052,0,0,1-12.623,9.016c-.431.139-.866.264-1.3.4a9.544,9.544,0,0,0,5.106,1.729,8.949,8.949,0,0,0,2.267-.165,9.783,9.783,0,0,0,6.5-4.244,9.615,9.615,0,0,0,1.7-5.58,8.184,8.184,0,0,0-.113-1.543A2.988,2.988,0,0,0-334.1,1056.738Z" transform="translate(384.474 -1013.421)"/><path class="c" d="M-629.228,820.477c-.389.063-.78.125-1.161.22a9.945,9.945,0,0,0-5.371,3.337,10.137,10.137,0,0,0-2.32,5.881,9.31,9.31,0,0,0,.212,2.584,10.062,10.062,0,0,0,1.722,3.845,12.869,12.869,0,0,0,1.689,1.8c.217.206.239.187.325-.11a31.06,31.06,0,0,1,.146-5.157,25.2,25.2,0,0,1,2.4-7.962,27,27,0,0,1,2.741-4.364C-628.952,820.422-629.1,820.457-629.228,820.477Z" transform="translate(638.101 -805.992)"/></g><path class="b" d="M-417.764,918.659a2.769,2.769,0,0,1-2.8,2.771,2.809,2.809,0,0,1-2.779-2.808,2.8,2.8,0,0,1,2.815-2.769A2.769,2.769,0,0,1-417.764,918.659Z" transform="translate(457.075 -883.236)"/><path class="b" d="M-452.821,928.625a1.218,1.218,0,0,1,1.238,1.2,1.212,1.212,0,0,1-1.184,1.252,1.23,1.23,0,0,1-1.271-1.221A1.239,1.239,0,0,1-452.821,928.625Z" transform="translate(484.022 -894.449)"/><path class="b" d="M-364.679,929.839a1.212,1.212,0,0,1-1.2,1.241,1.224,1.224,0,0,1-1.256-1.232,1.228,1.228,0,0,1,1.224-1.222A1.223,1.223,0,0,1-364.679,929.839Z" transform="translate(407.729 -894.449)"/><path class="b" d="M-409.3,887.573a1.23,1.23,0,0,1-1.238-1.206,1.24,1.24,0,0,1,1.2-1.248,1.235,1.235,0,0,1,1.255,1.236A1.21,1.21,0,0,1-409.3,887.573Z" transform="translate(445.835 -856.255)"/><path class="b" d="M-408.083,973.255a1.241,1.241,0,0,1-1.237,1.257,1.247,1.247,0,0,1-1.219-1.235,1.224,1.224,0,0,1,1.222-1.221A1.2,1.2,0,0,1-408.083,973.255Z" transform="translate(445.835 -932.576)"/></svg>